<?xml version="1.0" encoding="utf-8"?>
<!-- Generator: Adobe Illustrator 25.3.0, SVG Export Plug-In . SVG Version: 6.00 Build 0)  -->
<svg version="1.1" id="Layer_1" xmlns="http://www.w3.org/2000/svg" xmlns:xlink="http://www.w3.org/1999/xlink" x="0px" y="0px"
	 viewBox="0 0 16 16" style="enable-background:new 0 0 16 16;" xml:space="preserve">
<style type="text/css">
	.st0{fill:#FFFFFF;}
	.st1{fill-rule:evenodd;clip-rule:evenodd;fill:#FFFFFF;}
</style>
<path class="st0" d="M1,14c0,0-1,0-1-1s1-4,6-4s6,3,6,4s-1,1-1,1H1z M6,8c1.7,0,3-1.3,3-3S7.7,2,6,2S3,3.3,3,5S4.3,8,6,8z"/>
<path class="st1" d="M13.5,5C13.8,5,14,5.2,14,5.5V7h1.5C15.8,7,16,7.2,16,7.5S15.8,8,15.5,8H14v1.5c0,0.3-0.2,0.5-0.5,0.5
	S13,9.8,13,9.5V8h-1.5C11.2,8,11,7.8,11,7.5S11.2,7,11.5,7H13V5.5C13,5.2,13.2,5,13.5,5z"/>
</svg>
